<?xml version="1.0" encoding="UTF-8" standalone="no"?>
<!-- Created with Inkscape (http://www.inkscape.org/) -->

<svg
   version="1.1"
   id="svg387"
   width="365.84137"
   height="357.24554"
   viewBox="0 0 365.84137 357.24555"
   xmlns:xlink="http://www.w3.org/1999/xlink"
   xmlns="http://www.w3.org/2000/svg"
   xmlns:svg="http://www.w3.org/2000/svg">
  <defs
     id="defs391">
    <linearGradient
       id="linearGradient3125">
      <stop
         style="stop-color:#90d4e5;stop-opacity:1;"
         offset="0"
         id="stop3121" />
      <stop
         style="stop-color:#bae0ea;stop-opacity:1;"
         offset="1"
         id="stop3123" />
    </linearGradient>
    <linearGradient
       xlink:href="#linearGradient3125"
       id="linearGradient3127"
       x1="224.2841"
       y1="176.91985"
       x2="225.01276"
       y2="367.90561"
       gradientUnits="userSpaceOnUse" />
  </defs>
  <g
     id="g393"
     transform="translate(-39.460196,-26.08283)">
    <path
       id="path5162"
       style="display:inline;fill:#b9e8ee;fill-opacity:1;stroke:none;stroke-width:16.8167;stroke-opacity:1"
       d="m 396.89323,206.26564 c 0,94.86841 -79.18894,168.65438 -175.56944,168.65438 -96.38051,0 -173.455244,-73.78596 -173.455244,-168.65438 0,-94.86842 78.131834,-171.774462 174.512344,-171.77446 96.3805,0 174.51234,76.90605 174.51234,171.77446 z" />
    <path
       id="path1287"
       style="display:inline;fill:url(#linearGradient3127);fill-opacity:1;stroke-width:19.7755"
       d="m 366.45005,288.85659 c -41.10397,58.44227 -67.39412,74.15347 -146.12089,77.42725 -30.16789,1.25451 -95.51619,-10.51277 -137.596035,-66.52481 6.238124,-59.95724 63.320885,-123.41395 142.115695,-123.41395 78.7948,0 132.02279,67.13345 141.60123,112.51151 z" />
    <path
       style="fill:#d4f2f4;fill-opacity:1;stroke:none;stroke-width:16.944"
       d="m 147.92124,156.08304 c 0,0 -19.32567,-8.14371 -21.5466,-18.03011 -3.54621,-15.78582 -1.07927,-22.64167 1.78129,-25.72584 9.15949,-9.87548 12.40659,-10.67547 16.71898,-12.03475 4.31239,-1.359273 12.74153,-2.919315 18.58426,-1.359273 5.84273,1.560043 9.45756,9.283423 9.45756,9.283423 l 21.45442,31.16498 0.41587,13.28443 -25.26079,4.47321 c 0,0 -14.33743,1.54775 -21.60499,-1.05607 z"
       id="path5631" />
    <path
       style="fill:#d4f2f4;fill-opacity:1;stroke:none;stroke-width:16.944"
       d="m 258.80097,139.52181 c 0,0 8.65552,-9.26192 16.1556,-11.58406 7.50008,-2.32213 20.14738,-3.67116 26.08127,0.27145 5.9339,3.94261 10.41018,9.53029 10.7646,10.7984 0.35441,1.26811 7.11084,-2.50037 13.55382,-0.77541 6.44298,1.72495 16.56737,8.12901 18.82396,16.16072 2.25658,8.0317 0.0717,17.74739 -1.60409,22.58936 -1.67579,4.84196 -61.55558,-7.83197 -61.55558,-7.83197 0,0 -21.74122,-0.8215 -23.52047,-3.92007 -1.77924,-3.09858 -2.73699,-15.57276 -1.99025,-19.12306 0.74673,-3.5503 3.29114,-6.58536 3.29114,-6.58536 z"
       id="path6171" />
    <path
       style="display:inline;fill:#53caf2;fill-opacity:1"
       d="m 178.83372,365.04086 12.9426,-16.55833 c 0,0 8.19261,-11.52731 8.79668,-18.23437 0.60407,-6.70706 -0.14124,-12.23857 -0.14124,-12.23857 l 40.61611,1.08066 c 0,0 -2.09179,12.03142 0.25568,16.75534 2.34747,4.72391 22.57947,31.15959 22.57947,31.15959 0,0 -21.7726,3.73741 -30.43745,3.52953 -8.66486,-0.20787 -32.54011,0.78298 -43.35471,-2.20188 -10.81459,-2.98486 -11.25714,-3.29197 -11.25714,-3.29197 z"
       id="path480" />
    <path
       style="display:inline;fill:#277cbf;fill-opacity:1"
       d="m 200.1826,317.93716 c 0,0 -4.51532,-14.80262 -10.3083,-19.40992 -5.79299,-4.6073 -17.11387,-20.70425 -19.71413,-28.50646 -2.60025,-7.80221 -3.15985,-29.18064 -1.88971,-34.37912 1.3262,-5.42794 0.87764,-10.32021 11.76633,-22.2644 4.36491,-4.78803 11.50775,-18.25972 9.65498,-21.91963 -1.85277,-3.65992 0.12965,-7.5871 0.12965,-7.5871 l 3.29197,-23.57249 c 0,0 1.75933,-11.56932 -0.45921,-13.87333 -2.21855,-2.30402 5.14039,-6.63825 10.89209,-6.67012 5.7517,-0.0319 8.64603,3.86271 8.64603,3.86271 l -0.80905,9.75421 -0.64681,23.94552 1.10239,17.08924 1.83394,15.08075 c 0,0 0.96478,10.17068 4.68263,12.03287 3.71786,1.86219 13.23522,5.40838 20.07556,4.70581 6.84033,-0.70258 18.50236,-3.74031 19.04559,-9.47608 0.54323,-5.73577 -1.53336,-23.34724 -1.65142,-25.43758 -0.11806,-2.09034 -1.14073,-13.16436 0.40489,-19.46858 1.32045,-5.3858 5.49962,-13.00739 7.38646,-14.90619 1.95004,-1.9624 9.292,-9.09793 13.18886,-10.77476 2.89267,-1.24472 13.41412,-2.83348 18.03374,-2.90012 4.61961,-0.0666 21.04322,2.73353 23.96072,5.15778 2.9175,2.42424 13.40181,10.33945 16.96612,15.25603 3.5643,4.91658 12.45369,20.52824 13.09035,33.1181 0.63667,12.58987 -1.26174,33.13404 -5.84658,43.21129 -4.58485,10.07726 -12.49643,26.5914 -14.3311,28.8889 -1.83466,2.29749 -4.80721,0.32593 -4.80721,-1.39936 0,-1.72529 1.1024,-11.29553 1.58333,-13.60244 0.48094,-2.30691 3.44642,-16.08093 -3.29993,-23.38708 -5.53299,-5.9921 -14.60359,-11.58554 -23.88467,-8.78798 -8.40997,2.53498 -15.30456,11.91264 -16.05421,21.62121 -0.74966,9.70858 -0.56868,19.08386 -3.57734,27.63947 -1.96712,5.59383 -8.29619,14.47378 -13.6459,18.41762 -5.34972,3.94384 -19.57868,14.47306 -21.69438,19.97053 -2.11569,5.49747 -2.71686,9.78028 -2.71686,9.78028 z"
       id="path482" />
    <path
       style="display:inline;fill:#f15956;fill-opacity:1"
       d="m 192.63526,164.07447 c 0,0 3.87512,3.85702 3.72881,9.21977 -0.14631,5.36275 -8.36138,13.24898 -9.87228,13.57347 -1.5109,0.32449 -10.4901,1.42615 -12.46528,-3.749 -1.97518,-5.17516 1.21466,-11.26946 2.59373,-12.18788 1.37908,-0.91842 12.63396,-6.40584 16.01502,-6.85636 z"
       id="path484" />
    <path
       style="display:inline;fill:#f0e01d;fill-opacity:1"
       d="m 192.8474,162.59623 c 0,0 -19.34271,-1.03142 -20.63342,-3.38831 -1.29072,-2.35688 -0.3216,-5.81616 2.84144,-6.73531 3.16304,-0.91914 17.99842,-5.51908 17.99842,-5.51908 0,0 4.90281,6.21515 -0.20644,15.6427 z"
       id="path486" />
    <path
       style="display:inline;fill:#eb524d;fill-opacity:1"
       d="m 192.42132,145.88112 c 0,0 -12.20128,-4.73514 -15.73879,-12.00282 -3.5375,-7.26767 -6.92217,-18.29521 -5.14039,-24.09037 1.78179,-5.79516 6.56728,-15.16332 12.11472,-18.146006 5.54745,-2.982687 10.94497,-7.058349 18.94854,-7.221318 8.00357,-0.162968 16.11505,0.704024 21.6176,5.378687 5.50254,4.674662 12.89045,11.978547 15.16259,15.934707 2.27214,3.95615 6.26234,12.67533 6.87655,24.66981 0.61421,11.99449 -3.24344,25.37167 -6.01028,27.12956 -2.76685,1.75789 -8.78075,-17.09504 -9.97802,-18.95578 -1.19728,-1.86074 -5.83935,-7.69719 -10.40319,-6.46732 -4.56384,1.22987 -7.29864,9.66985 -7.69304,11.5686 -0.32773,1.57778 -3.30082,-3.17644 -9.38571,-3.17644 -6.08488,0 -4.68082,0.42879 -10.37058,5.37869 z"
       id="path488" />
    <path
       style="fill:#eb524d;fill-opacity:1"
       d="m 226.24445,255.46988 c 0,0 -0.0341,-5.85067 -9.25167,-5.43582 -9.21762,0.41485 -9.80814,9.21146 -9.07088,12.88289 0.73725,3.67142 17.85238,19.363 17.85238,19.363 l 18.12896,-17.78734 c 0,0 5.8646,-14.29023 -8.6463,-14.16406 -9.2267,0.0802 -9.01249,5.14133 -9.01249,5.14133 z"
       id="path7494" />
    <circle
       style="fill:#ffe724;fill-opacity:1"
       id="path10362"
       cx="267.4035"
       cy="200.27495"
       r="4.5429964" />
    <circle
       style="fill:#ffe724;fill-opacity:1"
       id="path13314"
       cx="266.88708"
       cy="176.77489"
       r="4.575644" />
    <circle
       style="fill:#ffe724;fill-opacity:1"
       id="path13316"
       cx="279.20352"
       cy="158.96062"
       r="4.3733406" />
    <circle
       style="fill:#ffe724;fill-opacity:1"
       id="path13318"
       cx="301.32343"
       cy="153.24258"
       r="4.5715466" />
    <circle
       style="fill:#ffe724;fill-opacity:1"
       id="path13320"
       cx="322.20911"
       cy="163.20395"
       r="4.0686049" />
    <circle
       style="fill:#ffe724;fill-opacity:1"
       id="path13322"
       cx="332.56522"
       cy="181.34778"
       r="4.2984533" />
    <ellipse
       style="fill:#dbfeff;fill-opacity:1"
       id="path10360"
       cx="202.4606"
       cy="149.5768"
       rx="2.6898866"
       ry="2.7181344" />
    <circle
       style="fill:#ffe724;fill-opacity:1"
       id="path13324"
       cx="338.68958"
       cy="200.26843"
       r="3.9485149" />
    <path
       id="path14900"
       style="display:inline;fill:none;stroke:#30909c;stroke-width:16.8167;stroke-opacity:1"
       d="m 396.89323,206.26564 c 0,94.86841 -79.18894,168.65438 -175.56944,168.65438 -96.38051,0 -173.455244,-73.78596 -173.455244,-168.65438 0,-94.86842 78.131834,-171.774462 174.512344,-171.77446 96.3805,0 174.51234,76.90605 174.51234,171.77446 z" />
  </g>
</svg>
