<?xml version="1.0" encoding="UTF-8" standalone="no"?>
<!-- Created with Inkscape (http://www.inkscape.org/) -->

<svg
   version="1.1"
   id="svg387"
   width="326.63052"
   height="150.66847"
   viewBox="0 0 326.63052 150.66847"
   xmlns="http://www.w3.org/2000/svg"
   xmlns:svg="http://www.w3.org/2000/svg">
  <defs
     id="defs391" />
  <g
     id="g393"
     transform="translate(-54.15895,-382.842)">
    <path
       style="display:inline;fill:#79d2d3;fill-opacity:1;stroke:none;stroke-width:16.944;stroke-dasharray:none;stroke-opacity:1"
       d="m 54.15895,382.842 h 326.63051 l -27.00214,67.9709 h -32.37265 l -13.39403,41.21972 h -51.02657 l -34.68865,41.47785 -34.1181,-42.50832 h -53.47983 l -11.178,-41.71688 H 78.057394 v -41.40271 z"
       id="path17182" />
    <g
       aria-label="MOBILITY"
       id="text182"
       style="letter-spacing:1.14px;display:inline;fill:#f7fefd;stroke-width:16.944"
       transform="translate(0,-0.39969)">
      <path
         d="m 103.86881,412.0308 v 24.80337 H 92.670904 v -33.59373 l -2.799478,-4.19922 2.799478,-1.39974 h 12.597646 l 6.9987,9.79817 6.99869,-9.79817 h 12.59765 v 39.19269 H 120.66568 V 412.0308 l -8.39843,10.80598 z"
         style="font-size:57.3333px;font-family:Inquisition;-inkscape-font-specification:'Inquisition, Normal'"
         id="path6318" />
      <path
         d="m 147.00098,397.64148 h 15.39712 l 8.39844,6.99869 v 25.1953 l -8.39844,6.9987 h -15.39712 l -8.39844,-6.9987 v -25.1953 z m 2.79947,11.19791 v 16.79687 l 2.79948,2.79947 h 4.19922 l 2.79948,-2.79947 v -16.79687 l -2.79948,-2.79948 h -4.19922 z"
         style="font-size:57.3333px;font-family:Inquisition;-inkscape-font-specification:'Inquisition, Normal'"
         id="path6320" />
      <path
         d="m 188.7334,413.03861 h 4.19922 l 2.79948,-2.79948 v -1.39974 l -2.79948,-2.79948 h -4.19922 z m 0,15.39712 h 5.59896 l 2.79948,-2.79947 v -1.39974 l -2.79948,-2.79948 h -5.59896 z m -11.19791,-25.19529 -2.79947,-4.19922 2.79947,-1.39974 h 20.99609 l 8.39843,6.99869 v 9.79818 l -2.65951,2.21158 4.05925,3.38737 v 9.79817 l -8.39844,6.9987 h -22.39582 z"
         style="font-size:57.3333px;font-family:Inquisition;-inkscape-font-specification:'Inquisition, Normal'"
         id="path6322" />
      <path
         d="m 215.0687,397.64148 h 11.19791 v 39.19269 H 215.0687 v -33.59373 l -2.79947,-4.19922 z"
         style="font-size:57.3333px;font-family:Inquisition;-inkscape-font-specification:'Inquisition, Normal'"
         id="path6324" />
      <path
         d="m 233.00557,397.64148 h 11.19791 v 30.82225 l 6.9707,-0.028 8.42643,-4.19921 1.39974,1.39974 -2.79948,11.19791 h -25.1953 v -33.59373 l -2.79948,-4.19922 z"
         style="font-size:57.3333px;font-family:Inquisition;-inkscape-font-specification:'Inquisition, Normal'"
         id="path6326" />
      <path
         d="m 266.33955,397.64148 h 11.19792 v 39.19269 h -11.19792 v -33.59373 l -2.79947,-4.19922 z"
         style="font-size:57.3333px;font-family:Inquisition;-inkscape-font-specification:'Inquisition, Normal'"
         id="path6328" />
      <path
         d="m 284.27643,397.64148 h 32.19399 l 5.59896,8.37044 h -13.99739 v 30.82225 h -11.19791 l 0.028,-30.82225 h -4.22721 l -2.82747,2.82747 -8.37044,-9.79817 z"
         style="font-size:57.3333px;font-family:Inquisition;-inkscape-font-specification:'Inquisition, Normal'"
         id="path6330" />
      <path
         d="m 327.40859,397.64148 h 11.19791 l 5.59895,12.59765 4.11523,-9.23828 -1.31575,-1.95963 2.79948,-1.39974 h 11.19791 l -11.19791,25.1953 v 13.99739 H 338.6065 v -13.99739 l -5.57096,-12.59765 -5.62695,-6.99869 -2.79948,-4.19922 z"
         style="font-size:57.3333px;font-family:Inquisition;-inkscape-font-specification:'Inquisition, Normal'"
         id="path6332" />
    </g>
    <g
       aria-label="FRIENDS"
       id="text182-2"
       style="letter-spacing:1.14px;display:inline;fill:#fafffe;stroke-width:16.944"
       transform="translate(0,-0.39969)">
      <path
         d="m 154.71939,453.76715 4.16667,6.25 h -12.50001 v 3.12501 h 8.33334 l 4.16667,6.25 h -12.50001 v 13.54168 h -8.33334 v -25.00002 l -2.08333,-3.125 2.08333,-1.04167 z"
         style="font-size:42.6667px;font-family:Inquisition;-inkscape-font-specification:'Inquisition, Normal'"
         id="path6303" />
      <path
         d="m 171.4844,466.26716 h 3.125 l 2.08334,-2.08334 v -2.08333 l -2.08334,-2.08334 h -3.125 z m 3.8125,6.25 h -3.8125 v 10.41668 h -8.33334 v -25.00002 l -2.08333,-3.125 2.08333,-1.04167 h 15.62501 l 6.25001,5.20834 v 8.33334 l -3.75001,3.125 h 1.66667 l 4.16667,12.50001 h -8.33334 z"
         style="font-size:42.6667px;font-family:Inquisition;-inkscape-font-specification:'Inquisition, Normal'"
         id="path6305" />
      <path
         d="m 190.33275,453.76715 h 8.33334 v 29.16669 h -8.33334 v -25.00002 l -2.08334,-3.125 z"
         style="font-size:42.6667px;font-family:Inquisition;-inkscape-font-specification:'Inquisition, Normal'"
         id="path6307" />
      <path
         d="m 220.63943,453.76715 4.16667,6.25 h -12.50001 v 3.12501 h 8.33334 l 4.16667,6.25 h -12.50001 v 7.31251 l 5.18751,-0.0208 6.27084,-3.125 1.04166,1.04167 -2.08333,8.33334 h -18.75002 v -25.00002 l -2.08333,-3.125 2.08333,-1.04167 z"
         style="font-size:42.6667px;font-family:Inquisition;-inkscape-font-specification:'Inquisition, Normal'"
         id="path6309" />
      <path
         d="m 244.69612,462.51716 v -4.58334 l -2.08333,-3.125 2.08333,-1.04167 h 8.33334 v 29.16669 h -8.33334 v -7.08334 l -7.29167,-10.20834 v 17.29168 h -8.33334 v -25.00002 l -2.08333,-3.125 2.08333,-1.04167 h 9.37501 z"
         style="font-size:42.6667px;font-family:Inquisition;-inkscape-font-specification:'Inquisition, Normal'"
         id="path6311" />
      <path
         d="m 258.33613,453.76715 h 15.62501 l 6.25,5.20834 v 18.75001 l -6.25,5.20834 h -15.62501 v -25.00002 l -2.08334,-3.125 z m 8.33334,22.91668 h 3.125 l 2.08333,-2.08333 v -12.50001 l -2.08333,-2.08334 h -3.125 z"
         style="font-size:42.6667px;font-family:Inquisition;-inkscape-font-specification:'Inquisition, Normal'"
         id="path6313" />
      <path
         d="m 292.80949,453.76715 h 9.39584 l 6.20833,5.20834 v 3.14583 l -8.33334,-2.10417 h -3.10416 l -2.06251,2.08334 -0.0208,2.08333 11.45834,3.14584 3.125,2.9375 v 7.45834 l -6.25,5.20834 h -11.45834 l -6.25001,-5.20834 v -3.14584 l 8.33334,2.08334 h 5.20834 l 2.08334,-2.0625 v -2.0625 l -11.43751,-3.12501 -3.14584,-3.14583 v -7.29167 z"
         style="font-size:42.6667px;font-family:Inquisition;-inkscape-font-specification:'Inquisition, Normal'"
         id="path6315" />
    </g>
  </g>
</svg>
